<svg width="100" height="100" viewBox="0 0 100 100" fill="none" xmlns="http://www.w3.org/2000/svg">
<rect width="100" height="100" rx="24" fill="white"/>
<path fill-rule="evenodd" clip-rule="evenodd" d="M22 40.8964L24.4497 44.1768V62.5381L22 66H36.9405V62.4922V42.331C36.9405 42.331 38.4494 40.8964 41.0755 40.8964C43.7005 40.8964 43.6564 43.8345 43.6564 43.8345L43.6123 62.5819L41.0755 66H58.619L56.1683 62.4463V42.331C56.1683 42.331 57.1532 40.8964 60.1068 40.8964C63.0595 40.8964 62.9282 43.8345 62.9282 43.8345L62.8631 62.4922V66H78L75.3319 62.4233V42.2632C75.3319 41.1009 74.872 34.4724 67.5881 34.4724C60.3032 34.4724 55.8407 40.1441 55.8407 40.1441C55.8407 40.1441 55.3167 34.4724 48.2292 34.4724C41.1416 34.4724 36.3935 40.3267 36.3935 40.3267L36.0869 40.0304L37.0497 34L22 40.8964Z" fill="black"/>
</svg>
